# File created by Blade
# Date/Time:  Fri Jan 16 17:18:57 2015
#---------------------------------------------------------
:version 1.10
:name HOM
:units
  mass 1.0
  length 1.000000
  angle deg
:documentation
     Acclaim Skeleton File
:root
   axis xyz
   order TX TY TZ RX RY RZ
   position 0.000000 0.000000 0.000000
   orientation 0 0 0
:bonedata
   begin
      id 1
      name Spine_dum
      direction 0.000000 1.000000 0.000000
      length 7.170412
      axis 0.0 0.0 0.0 xyz
   end
   begin
      id 2
      name LeftUpLeg_dum
      direction 1.000000 0.000000 0.000000
      length 4.318350
      axis 0.0 0.0 0.0 xyz
   end
   begin
      id 3
      name RightUpLeg_dum
      direction -1.000000 0.000000 0.000000
      length 4.318350
      axis 0.0 0.0 0.0 xyz
   end
   begin
      id 4
      name Spine
      direction 0.000000 1.000000 0.000000
      length 0.000000
      axis 0.0 0.0 0.0 xyz
      dof rx ry rz
   end
   begin
      id 5
      name Spine_dum1
      direction 0.000000 1.000000 0.000000
      length 14.276153
      axis 0.0 0.0 0.0 xyz
   end
   begin
      id 6
      name Spine_dum2
      direction 0.000000 1.000000 0.000000
      length 10.718243
      axis 0.0 0.0 0.0 xyz
   end
   begin
      id 7
      name Spine_dum3
      direction 0.000000 1.000000 0.000000
      length 10.718243
      axis 0.0 0.0 0.0 xyz
   end
   begin
      id 8
      name Head
      direction 0.000000 1.000000 0.000000
      length 4.527550
      axis 0.0 0.0 0.0 xyz
      dof rx ry rz
   end
   begin
      id 9
      name LeftShoulder
      direction 1.000000 0.000000 0.000000
      length 7.058872
      axis 0.0 0.0 -90.0 xyz
      dof rx ry rz
   end
   begin
      id 10
      name LeftArm
      direction 1.000000 0.000000 0.000000
      length 10.955525
      axis 0.0 0.0 -90.0 xyz
      dof rx ry rz
   end
   begin
      id 11
      name LeftForeArm
      direction 1.000000 0.000000 0.000000
      length 8.193716
      axis 0.0 0.0 -90.0 xyz
      dof ry rz rx
   end
   begin
      id 12
      name LeftHand
      direction 0.000000 0.000000 0.000000
      length 0.000000
      axis 0.0 0.0 -90.0 xyz
      dof rx ry rz
   end
   begin
      id 13
      name LeftHand_dum1
      direction 0.000000 0.000000 0.000000
      length 0.000000
      axis 0.0 0.0 -90.0 xyz
   end
   begin
      id 14
      name LeftHand_dum2
      direction 1.000000 0.000000 0.000000
      length 3.937000
      axis 0.0 0.0 -90.0 xyz
   end
   begin
      id 15
      name LeftHandThumb1
      direction 0.000000 0.000000 1.000000
      length 3.937000
      axis 0.0 0.0 -90.0 xyz
      dof rx rz ry
   end
   begin
      id 16
      name RightShoulder
      direction -1.000000 0.000000 0.000000
      length 7.058872
      axis 0.0 0.0 90.0 xyz
      dof rx ry rz
   end
   begin
      id 17
      name RightArm
      direction -1.000000 0.000000 0.000000
      length 10.955525
      axis 0.0 0.0 90.0 xyz
      dof rx ry rz
   end
   begin
      id 18
      name RightForeArm
      direction -1.000000 0.000000 0.000000
      length 8.193716
      axis 0.0 0.0 90.0 xyz
      dof ry rz rx
   end
   begin
      id 19
      name RightHand
      direction 0.000000 0.000000 0.000000
      length 0.000000
      axis 0.0 0.0 90.0 xyz
      dof rx ry rz
   end
   begin
      id 20
      name RightHand_dum1
      direction 0.000000 0.000000 0.000000
      length 0.000000
      axis 0.0 0.0 90.0 xyz
   end
   begin
      id 21
      name RightHand_dum2
      direction -1.000000 0.000000 0.000000
      length 3.937000
      axis 0.0 0.0 90.0 xyz
   end
   begin
      id 22
      name RightHandThumb1
      direction 0.000000 0.000000 1.000000
      length 3.937000
      axis 0.0 0.0 90.0 xyz
      dof rx rz ry
   end
   begin
      id 23
      name LeftUpLeg
      direction 0.000000 -1.000000 0.000000
      length 17.323638
      axis 0.0 0.0 0.0 xyz
      dof rx ry rz
   end
   begin
      id 24
      name LeftLeg
      direction 0.000000 -1.000000 0.000000
      length 16.270368
      axis 0.0 0.0 0.0 xyz
      dof rx ry rz
   end
   begin
      id 25
      name LeftFoot
      direction 0.000000 -0.258819 0.965926
      length 4.922846
      axis 15.0 0.0 0.0 xyz
      dof rx ry rz
   end
   begin
      id 26
      name LeftToeBase
      direction 0.000000 0.000000 1.000000
      length 2.952750
      axis 0.0 0.0 0.0 xyz
      dof rx ry rz
   end
   begin
      id 27
      name RightUpLeg
      direction 0.000000 -1.000000 0.000000
      length 17.323638
      axis 0.0 0.0 0.0 xyz
      dof rx ry rz
   end
   begin
      id 28
      name RightLeg
      direction 0.000000 -1.000000 0.000000
      length 16.270368
      axis 0.0 0.0 0.0 xyz
      dof rx ry rz
   end
   begin
      id 29
      name RightFoot
      direction 0.000000 -0.258819 0.965926
      length 4.922846
      axis 15.0 0.0 0.0 xyz
      dof rx ry rz
   end
   begin
      id 30
      name RightToeBase
      direction 0.000000 0.000000 1.000000
      length 2.952750
      axis 0.0 0.0 0.0 xyz
      dof rx ry rz
   end
:hierarchy
   begin
      root Spine_dum LeftUpLeg_dum RightUpLeg_dum
      Spine_dum Spine
      LeftUpLeg_dum LeftUpLeg
      RightUpLeg_dum RightUpLeg
      Spine Spine_dum1 Spine_dum2 Spine_dum3
      Spine_dum1 Head
      Spine_dum2 LeftShoulder
      Spine_dum3 RightShoulder
      LeftShoulder LeftArm
      LeftArm LeftForeArm
      LeftForeArm LeftHand
      LeftHand LeftHand_dum1 LeftHand_dum2
      LeftHand_dum1 LeftHandThumb1
      RightShoulder RightArm
      RightArm RightForeArm
      RightForeArm RightHand
      RightHand RightHand_dum1 RightHand_dum2
      RightHand_dum1 RightHandThumb1
      LeftUpLeg LeftLeg
      LeftLeg LeftFoot
      LeftFoot LeftToeBase
      RightUpLeg RightLeg
      RightLeg RightFoot
      RightFoot RightToeBase
   end

# File created by Blade
# Date/Time:  Fri Jan 16 17:19:08 2015
# Frame Rate: 120.000 fps
#------------------------------------------------------
:FULLY-SPECIFIED
:DEGREES
1361
root -5.509009 35.209556 -9.580760 -1.548441 -6.865744 -6.143965
Spine -1.028295 0.572275 11.088024
Head 4.683167 0.208807 -10.820465
LeftShoulder -19.859602 13.364150 -16.589156
LeftArm 20.556933 -5.921685 -73.314574
LeftForeArm 14.562079 -0.000000 9.574425
LeftHand 0.384740 -0.000000 -5.993698
LeftHandThumb1 -26.253704 0.000000 33.147579
RightShoulder -0.492001 7.846984 -3.906199
RightArm -3.461264 25.329699 40.737801
RightForeArm 8.329374 -0.000000 100.574265
RightHand 6.400056 -0.000000 -5.004318
RightHandThumb1 -24.326973 -0.000000 -32.862282
LeftUpLeg 12.737538 15.145017 7.678514
LeftLeg -9.258349 -0.000000 0.000000
LeftFoot -16.258260 28.307986 -8.827949
LeftToeBase 22.686513 -0.000000 -0.000000
RightUpLeg 9.018552 -2.952030 4.583717
RightLeg -5.228767 -0.000000 0.000000
RightFoot -4.134495 -28.200522 3.338225
RightToeBase 13.646093 -0.000000 -0.000000
1362
root -5.507316 35.209898 -9.582319 -1.539790 -6.882407 -6.138260
Spine -1.019616 0.571648 11.089049
Head 4.641376 0.242638 -10.857667
LeftShoulder -19.858214 13.355609 -16.586084
LeftArm 20.541238 -5.913125 -73.319157
LeftForeArm 14.558369 -0.000000 9.590292
LeftHand 0.383398 -0.000000 -5.989325
LeftHandThumb1 -26.253704 0.000000 33.147579
RightShoulder -0.460045 7.805902 -3.932539
RightArm -3.418153 24.822608 40.582152
RightForeArm 8.549869 -0.000000 100.898843
RightHand 6.163973 0.000000 -5.087853
RightHandThumb1 -24.326973 -0.000000 -32.862282
LeftUpLeg 12.729241 15.143656 7.666205
LeftLeg -9.256586 -0.000000 0.000000
LeftFoot -16.253070 28.318536 -8.835049
LeftToeBase 22.695452 -0.000000 -0.000000
RightUpLeg 9.010691 -2.950097 4.575952
RightLeg -5.242039 -0.000000 0.000000
RightFoot -4.115359 -28.201572 3.322697
RightToeBase 13.656830 -0.000000 -0.000000
1363
root -5.505926 35.210145 -9.584222 -1.529071 -6.893218 -6.136580
Spine -1.008071 0.570811 11.101689
Head 4.590294 0.291759 -10.909564
LeftShoulder -19.852259 13.347528 -16.585043
LeftArm 20.531734 -5.880580 -73.311040
LeftForeArm 14.540208 -0.000000 9.601580
LeftHand 0.394987 -0.000000 -5.995346
LeftHandThumb1 -26.253704 0.000000 33.147579
RightShoulder -0.473546 7.763844 -3.963948
RightArm -3.319616 24.224003 40.427793
RightForeArm 8.638934 -0.000000 101.251914
RightHand 6.230944 -0.000000 -4.799347
RightHandThumb1 -24.326973 -0.000000 -32.862282
LeftUpLeg 12.720363 15.160324 7.658501
LeftLeg -9.263833 -0.000000 0.000000
LeftFoot -16.249962 28.324719 -8.845901
LeftToeBase 22.661826 -0.000000 -0.000000
RightUpLeg 8.999944 -2.956247 4.571440
RightLeg -5.250954 -0.000000 0.000000
RightFoot -4.110926 -28.181984 3.311371
RightToeBase 13.704452 -0.000000 -0.000000
1364
root -5.504315 35.210641 -9.586544 -1.512271 -6.896344 -6.134851
Spine -1.005436 0.572204 11.119782
Head 4.544451 0.317100 -10.979286
LeftShoulder -19.837928 13.329818 -16.584045
LeftArm 20.513249 -5.866533 -73.305829
LeftForeArm 14.516379 -0.000000 9.615920
LeftHand 0.389212 -0.000000 -5.928502
LeftHandThumb1 -26.253704 0.000000 33.147579
RightShoulder -0.513451 7.656441 -4.004147
RightArm -3.152960 23.576631 40.289302
RightForeArm 8.827170 -0.000000 101.670800
RightHand 6.297653 -0.000000 -4.776356
RightHandThumb1 -24.326973 -0.000000 -32.862282
LeftUpLeg 12.698685 15.166263 7.649362
LeftLeg -9.261747 -0.000000 0.000000
LeftFoot -16.243622 28.325985 -8.840004
LeftToeBase 22.655618 -0.000000 -0.000000
RightUpLeg 8.984002 -2.948710 4.568316
RightLeg -5.261491 -0.000000 0.000000
RightFoot -4.084514 -28.178571 3.311153
RightToeBase 13.607457 -0.000000 -0.000000
1365
root -5.503565 35.210766 -9.587888 -1.506142 -6.902931 -6.136323
Spine -0.990676 0.567330 11.139965
Head 4.504718 0.370085 -11.039059
LeftShoulder -19.829322 13.326080 -16.582148
LeftArm 20.506540 -5.867327 -73.312106
LeftForeArm 14.541294 -0.000000 9.635452
LeftHand 0.416414 -0.000000 -5.910938
LeftHandThumb1 -26.253704 0.000000 33.147579
RightShoulder -0.555982 7.598204 -4.070635
RightArm -3.008805 22.866689 40.188058
RightForeArm 9.001619 -0.000000 102.148387
RightHand 6.419693 -0.000000 -4.500450
RightHandThumb1 -24.326973 -0.000000 -32.862282
LeftUpLeg 12.692702 15.181679 7.651106
LeftLeg -9.262394 -0.000000 0.000000
LeftFoot -16.241111 28.315233 -8.828543
LeftToeBase 22.680035 -0.000000 -0.000000
RightUpLeg 8.982466 -2.942740 4.570214
RightLeg -5.277590 -0.000000 0.000000
RightFoot -4.076194 -28.178637 3.323797
RightToeBase 13.647209 -0.000000 -0.000000
1366
root -5.502793 35.210974 -9.587392 -1.495818 -6.915255 -6.127390
Spine -0.990138 0.561895 11.146138
Head 4.470667 0.429914 -11.096541
LeftShoulder -19.824032 13.327450 -16.576000
LeftArm 20.483859 -5.854916 -73.308977
LeftForeArm 14.529690 -0.000000 9.678224
LeftHand 0.403612 -0.000000 -5.882592
LeftHandThumb1 -26.253704 0.000000 33.147579
RightShoulder -0.614214 7.502052 -4.122176
RightArm -2.807543 22.101337 40.066270
RightForeArm 9.445925 -0.000000 102.673291
RightHand 6.312073 -0.000000 -4.643131
RightHandThumb1 -24.326973 -0.000000 -32.862282
LeftUpLeg 12.687616 15.223243 7.643284
LeftLeg -9.267219 -0.000000 0.000000
LeftFoot -16.246935 28.276354 -8.868625
LeftToeBase 22.675139 -0.000000 -0.000000
RightUpLeg 8.979793 -2.932673 4.560110
RightLeg -5.296079 -0.000000 0.000000
RightFoot -4.064548 -28.178405 3.304818
RightToeBase 13.653005 -0.000000 -0.000000
1367
root -5.502556 35.211149 -9.588399 -1.485524 -6.917521 -6.125491
Spine -0.985918 0.542091 11.165040
Head 4.439007 0.506649 -11.156003
LeftShoulder -19.815433 13.331432 -16.575025
LeftArm 20.473867 -5.811829 -73.287546
LeftForeArm 14.481312 -0.000000 9.706880
LeftHand 0.414068 -0.000000 -5.843602
LeftHandThumb1 -26.253704 0.000000 33.147579
RightShoulder -0.666997 7.416222 -4.187647
RightArm -2.610102 21.250220 39.949895
RightForeArm 9.897118 -0.000000 103.229144
RightHand 6.398322 -0.000000 -4.397451
RightHandThumb1 -24.326973 -0.000000 -32.862282
LeftUpLeg 12.676704 15.234204 7.638669
LeftLeg -9.269019 -0.000000 0.000000
LeftFoot -16.232441 28.274922 -8.864538
LeftToeBase 22.671946 -0.000000 -0.000000
RightUpLeg 8.972890 -2.929025 4.558038
RightLeg -5.304637 -0.000000 0.000000
RightFoot -4.064397 -28.174146 3.330306
RightToeBase 13.649121 -0.000000 -0.000000
1368
root -5.502070 35.211173 -9.588811 -1.474529 -6.914532 -6.125610
Spine -0.985929 0.513544 11.185378
Head 4.408000 0.590083 -11.203959
LeftShoulder -19.803837 13.327439 -16.564057
LeftArm 20.449176 -5.812181 -73.290478
LeftForeArm 14.490355 0.000000 9.740594
LeftHand 0.431959 -0.000000 -5.843257
LeftHandThumb1 -26.253704 0.000000 33.147579
RightShoulder -0.730582 7.351512 -4.264900
RightArm -2.404847 20.385963 39.846820
RightForeArm 10.876983 -0.000000 103.785618
RightHand 6.452172 -0.000000 -4.321237
RightHandThumb1 -24.326973 -0.000000 -32.862282
LeftUpLeg 12.668075 15.241382 7.636006
LeftLeg -9.278143 -0.000000 0.000000
LeftFoot -16.231975 28.273502 -8.860078
LeftToeBase 22.694335 -0.000000 -0.000000
RightUpLeg 8.971264 -2.933033 4.557637
RightLeg -5.327223 -0.000000 0.000000
RightFoot -4.047047 -28.178181 3.307986
RightToeBase 13.651159 -0.000000 -0.000000
1369
root -5.501015 35.211620 -9.589560 -1.462281 -6.909161 -6.124475
Spine -0.987170 0.468924 11.215185
Head 4.381593 0.683476 -11.274671
LeftShoulder -19.801283 13.328010 -16.572756
LeftArm 20.439485 -5.866374 -73.308227
LeftForeArm 14.549470 -0.000000 9.765028
LeftHand 0.444774 0.000000 -5.823369
LeftHandThumb1 -26.253704 0.000000 33.147579
RightShoulder -0.789872 7.264761 -4.318538
RightArm -2.172718 19.216629 39.611145
RightForeArm 11.504116 -0.000000 104.434064
RightHand 6.464566 0.000000 -4.343581
RightHandThumb1 -24.326973 -0.000000 -32.862282
LeftUpLeg 12.654960 15.256059 7.631186
LeftLeg -9.284366 -0.000000 0.000000
LeftFoot -16.206416 28.258780 -8.838789
LeftToeBase 22.653409 -0.000000 -0.000000
RightUpLeg 8.961869 -2.929420 4.556967
RightLeg -5.335334 -0.000000 0.000000
RightFoot -4.027819 -28.182060 3.307166
RightToeBase 13.625171 -0.000000 -0.000000
